Coordinates
version=1
nRows=38
nColumns=38
inDegrees=no

Units are S.I. units (second, meters, Newtons, ...)
If the header above contains a line with 'inDegrees', this indicates whether rotational values are in degrees (yes) or radians (no).

endheader
time	pelvis_tilt	pelvis_list	pelvis_rotation	pelvis_tx	pelvis_ty	pelvis_tz	hip_flexion_r	hip_adduction_r	hip_rotation_r	knee_angle_r	ankle_angle_r	subtalar_angle_r	mtp_angle_r	hip_flexion_l	hip_adduction_l	hip_rotation_l	knee_angle_l	ankle_angle_l	subtalar_angle_l	mtp_angle_l	lumbar_extension	lumbar_bending	lumbar_rotation	arm_flex_r	arm_add_r	arm_rot_r	elbow_flex_r	pro_sup_r	wrist_flex_r	wrist_dev_r	arm_flex_l	arm_add_l	arm_rot_l	elbow_flex_l	pro_sup_l	wrist_flex_l	wrist_dev_l
1.67	2.87584	1.34995	-1.14931	0.568415	1.38594	0.955459	0.213963	-0.112381	-0.287363	0.916916	-0.21409	0	0	-0.30788	-0.0685053	-0.374557	0.244903	-0.144947	0	0	-0.327505	0.0537138	-0.231015	0.104329	-0.554381	1.17704	0.68938	0.362096	0	0	-0.139384	-0.50899	0.0335199	1.03764	1.49087	0	0
1.68	2.87301	1.34871	-1.14483	0.568225	1.39455	0.954866	0.220359	-0.111798	-0.299649	0.873957	-0.207634	0	0	-0.322619	-0.0703782	-0.371062	0.237583	-0.140706	0	0	-0.331272	0.05534	-0.232583	0.108637	-0.554457	1.18107	0.689417	0.36104	0	0	-0.128036	-0.511991	0.0297671	1.0476	1.49055	0	0
1.69	2.87031	1.34815	-1.14081	0.568151	1.40319	0.954122	0.225632	-0.110806	-0.3113	0.825558	-0.203031	0	0	-0.33609	-0.0723137	-0.36833	0.231589	-0.13672	0	0	-0.334401	0.0564821	-0.233577	0.112667	-0.553952	1.18542	0.68873	0.360631	0	0	-0.116351	-0.514904	0.0269355	1.05665	1.49098	0	0
1.7	2.86877	1.3481	-1.1385	0.568179	1.41187	0.953284	0.229223	-0.109301	-0.322376	0.772291	-0.200242	0	0	-0.348667	-0.0739743	-0.366444	0.226739	-0.132681	0	0	-0.337226	0.0569969	-0.233915	0.116693	-0.552885	1.19038	0.687217	0.360351	0	0	-0.104589	-0.517268	0.0242866	1.0648	1.49289	0	0
1.71	2.86637	1.34896	-1.13609	0.568385	1.42065	0.95235	0.231845	-0.106633	-0.33188	0.714442	-0.199792	0	0	-0.359954	-0.0754588	-0.365013	0.222775	-0.128645	0	0	-0.33904	0.056998	-0.233241	0.119974	-0.551167	1.19438	0.684752	0.359627	0	0	-0.0925964	-0.519157	0.0224231	1.07148	1.49586	0	0
1.72	2.86257	1.35058	-1.13318	0.568764	1.42951	0.951318	0.233219	-0.102656	-0.339442	0.651066	-0.203819	0	0	-0.37017	-0.0767925	-0.364154	0.219787	-0.124241	0	0	-0.339996	0.056718	-0.231432	0.122803	-0.549022	1.19797	0.681556	0.359074	0	0	-0.0804562	-0.520465	0.0212417	1.07676	1.49942	0	0
1.73	2.85673	1.35258	-1.12905	0.569298	1.4384	0.950206	0.232455	-0.0967323	-0.344098	0.581661	-0.214252	0	0	-0.379883	-0.0781585	-0.363461	0.217215	-0.119264	0	0	-0.340455	0.0564503	-0.228508	0.12534	-0.546275	1.20136	0.677433	0.358262	0	0	-0.0682536	-0.521038	0.0202607	1.08083	1.5037	0	0
1.74	2.84771	1.3546	-1.12201	0.569913	1.44738	0.949065	0.228153	-0.0883513	-0.347558	0.508044	-0.224984	0	0	-0.389334	-0.0801131	-0.36289	0.214815	-0.114818	0	0	-0.34057	0.0568241	-0.224935	0.127434	-0.543006	1.2043	0.672437	0.357295	0	0	-0.0560095	-0.520788	0.0196638	1.0836	1.50766	0	0
1.75	2.83559	1.35749	-1.1122	0.57063	1.4565	0.947809	0.221405	-0.0778205	-0.346642	0.427673	-0.239188	0	0	-0.397466	-0.082224	-0.362461	0.212982	-0.110728	0	0	-0.339338	0.0573716	-0.221101	0.129744	-0.53944	1.20877	0.666554	0.358126	0	0	-0.0446467	-0.519674	0.018778	1.08528	1.51187	0	0
1.76	2.82185	1.36162	-1.10145	0.571459	1.46573	0.946387	0.212787	-0.065778	-0.337913	0.340226	-0.260346	0	0	-0.403699	-0.0839371	-0.362809	0.212447	-0.106084	0	0	-0.336632	0.0574699	-0.217117	0.132109	-0.535441	1.21358	0.660005	0.358793	0	0	-0.0348158	-0.517845	0.0169799	1.08647	1.51652	0	0
1.77	2.80834	1.36689	-1.09122	0.57238	1.4751	0.944769	0.202765	-0.05387	-0.321911	0.250622	-0.281442	0	0	-0.408139	-0.0851755	-0.3638	0.213746	-0.100964	0	0	-0.332543	0.0568972	-0.213217	0.133619	-0.531506	1.21695	0.65403	0.358208	0	0	-0.0265325	-0.515771	0.0149887	1.08743	1.52096	0	0
1.78	2.79395	1.37299	-1.08001	0.5734	1.48466	0.942995	0.190059	-0.042064	-0.296721	0.158225	-0.305177	0	0	-0.410918	-0.0865968	-0.365518	0.217193	-0.0951134	0	0	-0.327058	0.0559133	-0.209685	0.134498	-0.527344	1.22043	0.648311	0.357336	0	0	-0.0200547	-0.51333	0.0123554	1.08817	1.52528	0	0
1.79	2.78063	1.3793	-1.06875	0.574375	1.49444	0.941108	0.176511	-0.0323714	-0.268373	0.0721753	-0.32463	0	0	-0.412765	-0.0885284	-0.367057	0.2228	-0.0890086	0	0	-0.320825	0.0548321	-0.207519	0.13455	-0.523458	1.22336	0.643748	0.356551	0	0	-0.0153815	-0.510988	0.00988048	1.08897	1.52779	0	0
1.8	2.77214	1.38442	-1.06099	0.575181	1.50439	0.939257	0.164198	-0.0260031	-0.245942	0.00252817	-0.337272	0	0	-0.415418	-0.0908986	-0.368907	0.230306	-0.0837301	0	0	-0.315775	0.0539561	-0.206962	0.134384	-0.520718	1.22552	0.641294	0.356179	0	0	-0.0122304	-0.509046	0.0079494	1.0901	1.52868	0	0
1.81	2.76994	1.38784	-1.05841	0.575631	1.51439	0.937664	0.164783	-0.0244675	-0.257027	0	-0.33409	0	0	-0.419675	-0.0929144	-0.370825	0.238097	-0.0810453	0	0	-0.312972	0.0538238	-0.207493	0.134315	-0.519285	1.2268	0.640716	0.356128	0	0	-0.00961136	-0.506579	0.00685913	1.09056	1.52874	0	0
1.82	2.76829	1.3897	-1.05539	0.576005	1.52456	0.936328	0.165724	-0.0223884	-0.271241	0	-0.32481	0	0	-0.424759	-0.0964328	-0.373175	0.247579	-0.0774709	0	0	-0.311337	0.054764	-0.209303	0.134991	-0.51766	1.22986	0.639821	0.356515	0	0	-0.00865586	-0.502989	0.00405559	1.09027	1.53044	0	0
1.83	2.76944	1.38926	-1.05458	0.576383	1.53487	0.935332	0.164237	-0.0193496	-0.279231	0	-0.32131	0	0	-0.432268	-0.101002	-0.37503	0.256337	-0.0770343	0	0	-0.31203	0.0566141	-0.211364	0.135335	-0.515859	1.23134	0.639125	0.356465	0	0	-0.00838382	-0.499636	0.00232302	1.0896	1.53079	0	0
1.84	2.76991	1.38791	-1.0528	0.576784	1.54537	0.934551	0.16186	-0.0149851	-0.280185	0	-0.320614	0	0	-0.44066	-0.106323	-0.375686	0.264135	-0.0777651	0	0	-0.313388	0.0592696	-0.213399	0.134984	-0.513962	1.23155	0.638569	0.356229	0	0	-0.00906751	-0.496461	0.00185451	1.08836	1.5306	0	0
1.85	2.76624	1.3843	-1.04628	0.577167	1.55593	0.934115	0.157751	-0.00814286	-0.276848	0	-0.321186	0	0	-0.449704	-0.114226	-0.377039	0.274288	-0.0793131	0	0	-0.31639	0.0641191	-0.215804	0.13496	-0.511742	1.23156	0.637466	0.355749	0	0	-0.0104754	-0.492464	0.000948508	1.08622	1.53027	0	0
1.86	2.76287	1.37868	-1.03886	0.577522	1.56674	0.933915	0.150425	-3.51261e-05	-0.268811	0	-0.323781	0	0	-0.459527	-0.124524	-0.38006	0.287776	-0.082472	0	0	-0.320656	0.0703401	-0.219646	0.135067	-0.509221	1.23186	0.636255	0.35521	0	0	-0.0138051	-0.488136	-0.000977057	1.08393	1.53026	0	0
1.87	2.76291	1.37259	-1.0346	0.57783	1.57779	0.93383	0.147001	0.00655193	-0.268691	0.0268085	-0.322632	0	0	-0.469818	-0.134789	-0.383925	0.302099	-0.0882862	0	0	-0.32555	0.0764513	-0.224613	0.135623	-0.50702	1.23346	0.635895	0.354894	0	0	-0.0200224	-0.483853	-0.00411859	1.08288	1.53075	0	0
1.88	2.7615	1.36842	-1.02839	0.578088	1.58915	0.933661	0.145528	0.0121745	-0.269887	0.0573631	-0.3142	0	0	-0.477824	-0.144285	-0.385658	0.316254	-0.0950603	0	0	-0.327745	0.0821046	-0.230152	0.134988	-0.504907	1.23523	0.635564	0.355034	0	0	-0.027584	-0.479287	-0.00626235	1.08081	1.53157	0	0
1.89	2.7577	1.36545	-1.0196	0.578367	1.60079	0.933474	0.141818	0.0181984	-0.266548	0.0757636	-0.309217	0	0	-0.483382	-0.153992	-0.387316	0.332289	-0.103266	0	0	-0.327946	0.087661	-0.235913	0.133423	-0.502657	1.2369	0.634777	0.355429	0	0	-0.0363489	-0.474343	-0.00785326	1.07781	1.53281	0	0
1.9	2.75079	1.36356	-1.00807	0.578779	1.61276	0.933322	0.136633	0.0246251	-0.259068	0.0830258	-0.318662	0	0	-0.485985	-0.164282	-0.38948	0.351879	-0.11295	0	0	-0.326142	0.0929351	-0.241157	0.130636	-0.499891	1.23752	0.632942	0.355161	0	0	-0.0462631	-0.469127	-0.00874458	1.07364	1.53515	0	0
1.91	2.74214	1.36305	-0.995256	0.5793	1.62496	0.933215	0.132325	0.0303449	-0.252332	0.0871589	-0.342001	0	0	-0.485283	-0.174545	-0.391352	0.374934	-0.124702	0	0	-0.322333	0.0975652	-0.245706	0.126919	-0.497121	1.23802	0.630858	0.354935	0	0	-0.0567889	-0.463609	-0.0086614	1.0681	1.53859	0	0
1.92	2.73403	1.36336	-0.983091	0.579786	1.63726	0.933209	0.129154	0.0351166	-0.253338	0.0939605	-0.373044	0	0	-0.481732	-0.184586	-0.392211	0.401536	-0.139709	0	0	-0.317481	0.101655	-0.250104	0.123019	-0.494568	1.23915	0.628631	0.354532	0	0	-0.0677727	-0.457738	-0.00791642	1.06161	1.54324	0	0
1.93	2.72878	1.36234	-0.973976	0.580259	1.64961	0.933489	0.123533	0.04069	-0.25965	0.102767	-0.392829	0	0	-0.478038	-0.194712	-0.390816	0.43041	-0.154898	0	0	-0.314039	0.105983	-0.253899	0.118897	-0.492617	1.23964	0.626971	0.353457	0	0	-0.0789104	-0.451874	-0.00623163	1.05466	1.54849	0	0
1.94	2.72494	1.35937	-0.967269	0.580816	1.66197	0.934122	0.116969	0.0468747	-0.267106	0.116272	-0.405247	0	0	-0.474084	-0.205323	-0.388856	0.462819	-0.173383	0	0	-0.312651	0.11101	-0.25647	0.115177	-0.491196	1.24034	0.62583	0.351962	0	0	-0.0902436	-0.445952	-0.00415556	1.0473	1.55419	0	0
1.95	2.72241	1.35506	-0.963544	0.581536	1.67418	0.935052	0.111108	0.0526439	-0.271527	0.135598	-0.411453	0	0	-0.46892	-0.215875	-0.385349	0.499619	-0.19418	0	0	-0.313174	0.116162	-0.257238	0.112383	-0.490379	1.24131	0.625447	0.350162	0	0	-0.101511	-0.439888	-0.00213067	1.0399	1.5598	0	0
1.96	2.71894	1.35086	-0.961191	0.582503	1.68623	0.936118	0.108229	0.0572623	-0.276531	0.162142	-0.412788	0	0	-0.46036	-0.22592	-0.380575	0.542371	-0.218338	0	0	-0.314073	0.120852	-0.255749	0.110286	-0.490356	1.24273	0.626144	0.34746	0	0	-0.112716	-0.433552	-0.000286042	1.03232	1.56523	0	0
1.97	2.7141	1.34632	-0.959269	0.583796	1.69815	0.937344	0.105051	0.0621107	-0.280367	0.189459	-0.409214	0	0	-0.448846	-0.236244	-0.3731	0.59066	-0.241401	0	0	-0.315524	0.125286	-0.252517	0.108626	-0.490424	1.24407	0.627502	0.344331	0	0	-0.124173	-0.427474	0.00144542	1.02487	1.56969	0	0
1.98	2.70849	1.34084	-0.957434	0.585324	1.70994	0.938685	0.098289	0.0685734	-0.284079	0.21108	-0.402887	0	0	-0.434941	-0.247284	-0.362252	0.643512	-0.262377	0	0	-0.318075	0.129923	-0.248461	0.10752	-0.490698	1.24561	0.629758	0.342065	0	0	-0.136261	-0.422159	0.00334899	1.01845	1.5708	0	0
1.99	2.70225	1.33537	-0.955342	0.586937	1.72154	0.939939	0.0893287	0.0758196	-0.289289	0.227389	-0.394681	0	0	-0.417902	-0.258293	-0.348171	0.69969	-0.285056	0	0	-0.320899	0.134605	-0.24388	0.106755	-0.492029	1.24744	0.633795	0.340105	0	0	-0.14871	-0.417307	0.00542995	1.01311	1.5708	0	0
2	2.69677	1.33028	-0.954014	0.588531	1.73297	0.94101	0.0783109	0.083344	-0.294951	0.238244	-0.38626	0	0	-0.398382	-0.268669	-0.331621	0.757695	-0.308095	0	0	-0.323585	0.138898	-0.239595	0.105984	-0.494252	1.24863	0.639266	0.338117	0	0	-0.161802	-0.412563	0.0067452	1.00899	1.5708	0	0
2.01	2.69424	1.32561	-0.955464	0.590098	1.74423	0.941899	0.0661862	0.0901834	-0.300266	0.246731	-0.376469	0	0	-0.376916	-0.277689	-0.31383	0.817125	-0.326681	0	0	-0.326425	0.142223	-0.23565	0.10532	-0.497394	1.24936	0.646423	0.336436	0	0	-0.175172	-0.408191	0.0077902	1.00612	1.56905	0	0
2.02	2.6944	1.32201	-0.95988	0.591671	1.75526	0.942597	0.0549026	0.0953564	-0.303382	0.254925	-0.365759	0	0	-0.353368	-0.284753	-0.29653	0.878137	-0.335532	0	0	-0.32884	0.143972	-0.231722	0.104783	-0.500852	1.2495	0.654243	0.335066	0	0	-0.188391	-0.404522	0.00940711	1.00399	1.56535	0	0
2.03	2.69669	1.31876	-0.96659	0.593266	1.76605	0.943272	0.0418113	0.100461	-0.30427	0.261273	-0.3517	0	0	-0.328992	-0.290817	-0.280625	0.939964	-0.33462	0	0	-0.331488	0.144487	-0.227613	0.104472	-0.503996	1.24882	0.661755	0.3339	0	0	-0.200889	-0.401667	0.0120338	1.00213	1.56067	0	0
2.04	2.70014	1.31644	-0.974655	0.594801	1.7765	0.944004	0.0287601	0.104555	-0.303525	0.265869	-0.337044	0	0	-0.302953	-0.295693	-0.266002	1.0019	-0.328747	0	0	-0.33423	0.143863	-0.222845	0.104616	-0.506829	1.24814	0.668582	0.333615	0	0	-0.211751	-0.398967	0.0155803	0.999564	1.55581	0	0
